<svg width="151" height="99" viewBox="0 0 151 99" fill="#fff" xmlns="http://www.w3.org/2000/svg">
<path d="M150.5 1.50001C107.5 -2.49999 93 28.5 60.2862 33.28C76.7833 35.418 79.5088 53.157 71.9966 75.537C70.9886 74.248 70.0031 73.391 69 72.833L64.5 60C63.0742 62.109 61.3003 67.444 65.6113 71.913C64.4533 71.851 63.2257 71.968 61.8801 72.108C61.824 67.18 54.7674 64.666 51.2106 64.006C55.2396 68.309 58.2567 71.138 59.1828 73.681C58.3348 75.313 57.8203 76.781 58 79C51.9395 74 40 62.1 42 50.5C32.1667 50.334 12.5 45.5 2 55C14 55 24.5 56.834 22.5 58.5C26.8333 57.87 35.7 58.699 36.5 67.055C39 65 45.5 71.948 47 80C48.2 80 60.4187 83.967 65.878 88.182C66.6643 94.028 68.8829 100.135 83.1041 96.492C83.8229 95.433 86.0816 94.747 86.2263 93.942L85.954 90.597C85.954 90.597 87.1636 87.399 87.8341 87.184L83.4211 88.182C82.8649 86.919 82.0441 85.527 80.4406 83.589C81.6776 73.335 87.0343 66.241 101.502 67.055C90.1611 40.35 121.492 34.301 121.492 34.301C121.492 34.301 104.5 17.5 150.5 1.50001Z" stroke="black"/>
</svg>
