<svg width="35" height="34" viewBox="0 0 35 34" fill="none" xmlns="http://www.w3.org/2000/svg">
<path d="M17.4958 8.00005C14.9018 8.00005 12.5358 9.04239 10.8093 10.8389C9.12497 12.5941 8.08654 15.0364 8.00211 17.8448L8 17.886V17.9294C8.12031 20.6078 9.38247 22.9655 11.6662 25.4143L13.1479 31.7875L13.1626 31.8351C13.3737 32.4788 13.7789 33.014 14.2897 33.3889C14.8195 33.779 15.4675 34 16.1534 34L19.0745 33.9913L19.1189 33.987C19.7706 33.9305 20.3895 33.6695 20.8918 33.2394C21.3794 32.819 21.7487 32.2425 21.9049 31.5621L23.585 24.9527C25.7674 22.7987 27 20.3066 27 17.5046C26.9984 16.2496 26.7509 15.0077 26.2723 13.8529C25.7937 12.6981 25.0937 11.6539 24.214 10.7825C22.4142 8.99015 20.0031 7.99154 17.4958 8.00005ZM12.3142 12.3601C12.9912 11.6574 13.7986 11.101 14.6885 10.724C15.5785 10.347 16.5331 10.1569 17.4958 10.1649C19.4534 10.1558 21.3367 10.9336 22.7428 12.3319C23.4205 13.0016 23.9598 13.8046 24.3286 14.6929C24.6974 15.5813 24.8881 16.5368 24.8894 17.5025C24.8894 19.65 23.9332 21.6761 21.926 23.581L21.6981 23.7977L20.7567 27.5011H14.3214L13.5848 24.3286L13.38 24.1119C11.1681 21.8062 10.2141 19.8732 10.1106 17.873C10.1908 15.602 11.0267 13.7015 12.3142 12.3623V12.3601ZM14.8258 29.6681H20.208L19.8597 31.0268L19.8534 31.055C19.8058 31.2591 19.6946 31.4417 19.5368 31.5751C19.3765 31.7127 19.1807 31.7993 18.9732 31.8243L16.1513 31.8351C15.9245 31.8359 15.7031 31.7639 15.5181 31.6293C15.3641 31.5179 15.2453 31.3628 15.1762 31.1829L14.8237 29.6681H14.8258Z" fill="#F5F3C2"/>
<path d="M17 5V0M27 9L30 6M8 9L5 6M5 17H0M30 17H35" stroke="#F5F3C2" stroke-width="2"/>
</svg>
