<svg width="20" height="17" viewBox="0 0 20 17" fill="none" xmlns="http://www.w3.org/2000/svg">
<path fill-rule="evenodd" clip-rule="evenodd" d="M2 13.9282V3.19569C2.13253 3.07378 2.32879 2.91415 2.59285 2.75166C3.18123 2.38958 4.12664 2 5.5 2C6.87336 2 7.81877 2.38958 8.40715 2.75166C8.67121 2.91415 8.86747 3.07378 9 3.19569V13.9282C8.17973 13.6993 7.02637 13.5 5.5 13.5C3.97363 13.5 2.82027 13.6993 2 13.9282ZM9.4564 16.2394C9.4538 16.2378 9.44825 16.2345 9.4397 16.2296C9.417 16.2166 9.3731 16.1926 9.30711 16.1609C9.17527 16.0976 8.95438 16.0034 8.63716 15.9058C8.00397 15.7109 6.97826 15.5 5.5 15.5C4.02174 15.5 2.99603 15.7109 2.36284 15.9058C2.04562 16.0034 1.82473 16.0976 1.69289 16.1609C1.6269 16.1926 1.583 16.2166 1.5603 16.2296C1.55141 16.2347 1.54576 16.238 1.5433 16.2395C1.23811 16.4371 0.849287 16.4535 0.528142 16.2817C0.202985 16.1077 0 15.7688 0 15.4V2.8C0 2.58363 0.0701779 2.3731 0.2 2.2L1 2.8C0.2 2.2 0.200334 2.19956 0.200673 2.1991L0.201379 2.19817L0.202892 2.19616L0.206319 2.19165L0.214788 2.18068C0.221153 2.1725 0.228962 2.16262 0.238233 2.15115C0.25677 2.12821 0.281176 2.0989 0.311583 2.06415C0.372363 1.99469 0.457356 1.90322 0.567624 1.79736C0.787989 1.58581 1.11091 1.31526 1.54465 1.04834C2.41877 0.510424 3.72336 0 5.5 0C7.27664 0 8.58123 0.510424 9.45535 1.04834C9.66168 1.17532 9.84293 1.30311 10 1.42499C10.1571 1.30311 10.3383 1.17532 10.5447 1.04834C11.4188 0.510424 12.7234 0 14.5 0C16.2766 0 17.5812 0.510424 18.4553 1.04834C18.8891 1.31526 19.212 1.58581 19.4324 1.79736C19.5426 1.90322 19.6276 1.99469 19.6884 2.06415C19.7188 2.0989 19.7432 2.12821 19.7618 2.15115C19.771 2.16262 19.7788 2.1725 19.7852 2.18068L19.7937 2.19165L19.7971 2.19616L19.7986 2.19817L19.7993 2.1991C19.7997 2.19956 19.8 2.2 19 2.8L19.8 2.2C19.9298 2.3731 20 2.58363 20 2.8V15.4C20 15.7688 19.797 16.1077 19.4719 16.2817C19.1507 16.4535 18.7619 16.4371 18.4567 16.2395C18.4542 16.238 18.4486 16.2346 18.4397 16.2296C18.417 16.2166 18.3731 16.1926 18.3071 16.1609C18.1753 16.0976 17.9544 16.0034 17.6372 15.9058C17.004 15.7109 15.9783 15.5 14.5 15.5C13.0217 15.5 11.996 15.7109 11.3628 15.9058C11.0456 16.0034 10.8247 16.0976 10.6929 16.1609C10.6269 16.1926 10.583 16.2166 10.5603 16.2296C10.5518 16.2344 10.5462 16.2377 10.5436 16.2393C10.5332 16.2461 10.5226 16.2527 10.5119 16.259C10.4987 16.2669 10.4853 16.2745 10.4719 16.2817C10.231 16.4106 9.95207 16.4335 9.69891 16.3536C9.62465 16.3302 9.55261 16.2979 9.48439 16.2568C9.47495 16.2511 9.46562 16.2453 9.4564 16.2394ZM11 13.9282C11.8203 13.6993 12.9736 13.5 14.5 13.5C16.0264 13.5 17.1797 13.6993 18 13.9282V3.19569C17.8675 3.07378 17.6712 2.91415 17.4072 2.75166C16.8188 2.38958 15.8734 2 14.5 2C13.1266 2 12.1812 2.38958 11.5928 2.75166C11.3288 2.91415 11.1325 3.07378 11 3.19569V13.9282ZM18.2064 3.40842C18.2078 3.41014 18.2079 3.41036 18.2069 3.409L18.2064 3.40842Z" fill="white"/>
</svg>
