<svg width="14" height="16" viewBox="0 0 14 16" fill="none" xmlns="http://www.w3.org/2000/svg">
<path fill-rule="evenodd" clip-rule="evenodd" d="M4.62718 0.484234C5.00798 0.170518 5.47724 7.72022e-05 5.9604 0H8.03834C8.5215 7.72022e-05 8.99088 0.170518 9.37168 0.484234C9.61295 0.874424 9.78787 1.20946 9.92548 1.5238H11.3333C11.908 1.5238 12.4591 1.76462 12.8654 2.19327C13.2717 2.62193 13.5 3.20331 13.5 3.80952V13.7143C13.5 14.3205 13.2717 14.9019 12.8654 15.3305C12.4591 15.7592 11.908 16 11.3333 16H2.66667C2.09203 16 1.54093 15.7592 1.1346 15.3305C0.728273 14.9019 0.5 14.3205 0.5 13.7143V3.80952C0.5 3.20331 0.728273 2.62193 1.1346 2.19327C1.54093 1.76462 2.09203 1.5238 2.66667 1.5238H4.02771C4.16947 1.20696 4.35746 0.871923 4.62718 0.484234ZM5.16585 2.49869C5.17088 2.48043 5.17527 2.46189 5.17902 2.4431L5.26008 2.10091C5.29914 1.9361 5.38929 1.78978 5.51621 1.68522C5.64312 1.58067 5.7995 1.52386 5.96051 1.52381H8.03834C8.19936 1.52386 8.35574 1.58067 8.48264 1.68522C8.60958 1.78979 8.69979 1.93636 8.73885 2.10119L8.9634 3.04762H5.03582L5.16585 2.49869ZM3.55641 3.04761H2.66667C2.47512 3.04761 2.29142 3.12789 2.15598 3.27077C2.02054 3.41366 1.94444 3.60745 1.94444 3.80952V13.7143C1.94444 13.9164 2.02054 14.1101 2.15598 14.253C2.29142 14.3959 2.47512 14.4762 2.66667 14.4762H11.3333C11.5249 14.4762 11.7086 14.3959 11.844 14.253C11.9795 14.1101 12.0556 13.9163 12.0556 13.7143V3.80952C12.0556 3.60745 11.9795 3.41366 11.844 3.27077C11.7086 3.12789 11.5249 3.04761 11.3333 3.04761H10.4274C10.477 3.22808 10.5295 3.41864 10.5893 3.62452C10.6433 3.85216 10.5949 4.09335 10.458 4.27832C10.3211 4.4633 10.1111 4.57143 9.88868 4.57143H4.1109C3.88851 4.57143 3.67853 4.46335 3.54166 4.27844C3.40479 4.09353 3.35631 3.85241 3.41023 3.6248C3.46519 3.41912 3.51224 3.22835 3.55641 3.04761ZM4.11111 8.38095C4.11111 7.96016 4.43446 7.61904 4.83333 7.61904H9.16667C9.56554 7.61904 9.88889 7.96016 9.88889 8.38095C9.88889 8.80174 9.56554 9.14285 9.16667 9.14285H4.83333C4.43446 9.14285 4.11111 8.80174 4.11111 8.38095ZM4.83333 10.6667C4.43446 10.6667 4.11111 11.0078 4.11111 11.4286C4.11111 11.8494 4.43446 12.1905 4.83333 12.1905H9.16667C9.56554 12.1905 9.88889 11.8494 9.88889 11.4286C9.88889 11.0078 9.56554 10.6667 9.16667 10.6667H4.83333Z" fill="red" />
</svg>
