<svg width="11" height="11" viewBox="0 0 11 11" fill="none" xmlns="http://www.w3.org/2000/svg">
<path fill-rule="evenodd" clip-rule="evenodd" d="M0.0241079 3.06371C0.0241079 2.50309 0.467529 2.03274 1.0798 2.03173C1.69214 2.03065 2.08769 2.03274 2.08769 2.03274C2.08769 2.03274 2.06138 1.43361 2.06138 0.957134C2.06138 0.480525 2.48364 0.00357853 3.09632 0.00357853C3.709 0.00357853 9.3894 -0.0139239 9.96546 0.0284863C10.5415 0.0708965 11 0.430575 11 1.0091C11 1.58763 10.9963 7.32398 10.9963 7.85532C10.9963 8.38659 10.5162 8.86933 9.92098 8.87599C9.32573 8.88272 8.92231 8.86926 8.92231 8.86926C8.92231 8.86926 8.94422 9.54042 8.94422 9.95267C8.94422 10.3649 8.4614 10.9635 7.8949 10.9635C7.32839 10.9635 1.58046 11 1.032 11C0.483533 11 -0.0226146 10.521 0.000780526 9.92379C0.0241756 9.32662 0.0241757 3.6242 0.0241757 3.06371H0.0241079ZM3.14752 1.14603L3.14291 7.75421C3.14291 7.82799 3.20353 7.88817 3.27847 7.88777L9.75823 7.85343C9.79426 7.85327 9.82875 7.83894 9.85414 7.81358C9.87954 7.78821 9.89377 7.75389 9.89372 7.71812L9.88938 1.16925C9.88932 1.1334 9.87494 1.09904 9.84938 1.07371C9.82383 1.04837 9.78919 1.03415 9.75308 1.03415L3.28382 1.0122C3.266 1.01202 3.24832 1.01535 3.2318 1.022C3.21528 1.02864 3.20025 1.03847 3.18757 1.05091C3.1749 1.06335 3.16484 1.07817 3.15796 1.09449C3.15109 1.11082 3.14754 1.12833 3.14752 1.14603ZM1.07234 3.33769L1.13446 9.81676C1.13491 9.85245 1.14956 9.88651 1.17523 9.91151C1.20089 9.93651 1.23548 9.95041 1.27144 9.95018L7.65423 9.90205C7.68979 9.90185 7.72496 9.89466 7.75772 9.88091C7.79047 9.86716 7.82016 9.84711 7.84508 9.82192C7.86999 9.79673 7.88964 9.76689 7.9029 9.73413C7.91615 9.70137 7.92274 9.66633 7.92229 9.63103L7.913 8.88131C7.913 8.88131 3.64919 8.92022 3.0947 8.92022C2.5402 8.92022 2.04782 8.39918 2.04782 7.81284C2.04782 7.2265 2.08769 3.18811 2.08769 3.18811C2.08837 3.11406 2.02842 3.05415 1.95369 3.05516L1.34156 3.06391C1.26932 3.06489 1.20042 3.09425 1.14996 3.14557C1.09949 3.19689 1.07158 3.26598 1.07234 3.33769Z" fill="white"/>
</svg>
