<svg width="38" height="42" viewBox="0 0 38 42" fill="none" xmlns="http://www.w3.org/2000/svg">
<path d="M19 28C21.785 28 24 25.7817 24 23C24 20.2183 21.785 18 19 18C16.215 18 14 20.2183 14 23C14 25.7817 16.215 28 19 28Z" fill="#FF7878"/>
<path d="M37.6136 19.2906C37.1162 16.8721 36.1441 14.575 34.7531 12.5307C33.3863 10.5195 31.6449 8.78728 29.6231 7.42769C27.5677 6.04448 25.2585 5.07757 22.8274 4.5822C21.5504 4.32459 20.2502 4.19792 18.9472 4.2042V0L10.5555 6.3L18.9472 12.6V8.40419C19.969 8.39999 20.9908 8.49659 21.9767 8.69819C23.8661 9.08335 25.6609 9.83473 27.2586 10.9095C28.8343 11.9663 30.1905 13.3153 31.2529 14.8827C32.9023 17.3087 33.7819 20.1712 33.7778 23.1C33.7774 25.0653 33.3826 27.0108 32.6166 28.8225C32.2441 29.6951 31.7889 30.5305 31.2571 31.3173C30.7232 32.0993 30.1168 32.8298 29.4458 33.4992C27.4022 35.5282 24.8079 36.9199 21.9809 37.5039C20.0149 37.8987 17.9893 37.8987 16.0233 37.5039C14.1329 37.1183 12.3374 36.3662 10.7392 35.2905C9.16535 34.2346 7.81067 32.8871 6.74922 31.3215C5.10161 28.8929 4.22159 26.0298 4.22222 23.1H0C0.00224658 26.8667 1.13343 30.5473 3.249 33.6714C4.61668 35.6793 6.35626 37.4097 8.37477 38.7702C11.5111 40.8817 15.2129 42.0069 19 42C20.2862 41.9999 21.5692 41.8711 22.8295 41.6157C25.2589 41.1167 27.5667 40.1501 29.6231 38.7702C30.6328 38.0934 31.5739 37.3205 32.433 36.4623C33.2933 35.6042 34.0708 34.6677 34.7552 33.6651C36.8761 30.5461 38.0065 26.8655 38 23.1C37.9999 21.8205 37.8704 20.5443 37.6136 19.2906Z" fill="#FF7878"/>
</svg>
