<svg width="19" height="18" viewBox="0 0 19 18" fill="none" xmlns="http://www.w3.org/2000/svg">
<path fill-rule="evenodd" clip-rule="evenodd" d="M12.4309 0.982252C12.437 0.975761 12.4433 0.969338 12.4497 0.962985C13.0663 0.346396 13.9026 0 14.7746 0C15.6466 0 16.4829 0.346396 17.0995 0.962985C17.7161 1.57957 18.0625 2.41585 18.0625 3.28784C18.0625 4.14873 17.7249 4.9748 17.1229 5.58903C17.1154 5.59704 17.1077 5.60493 17.0999 5.61271L15.5497 7.16295L16.3214 7.9348C16.521 8.14148 16.6315 8.4183 16.629 8.70563C16.6265 8.99296 16.5112 9.26781 16.3081 9.47099C16.1049 9.67417 15.83 9.78942 15.5427 9.79192C15.2553 9.79441 14.9785 9.68396 14.7718 9.48434L14 8.71255L7.2644 15.448C7.15814 15.5537 7.03133 15.6365 6.8918 15.6913C6.45783 15.8633 6.01509 16.0803 4.97071 16.6184C4.45565 16.8836 4.22661 16.9997 3.94826 17.1378C2.03265 18.0813 1.31266 18.3082 0.533484 17.529C-0.244592 16.751 -0.0188407 16.031 0.918139 14.1264C1.05732 13.8448 1.17458 13.6135 1.44416 13.0908C1.98224 12.0465 2.19923 11.6048 2.37018 11.1698C2.4254 11.0306 2.50857 10.9041 2.61457 10.7983L9.35019 4.06285L8.57242 3.2851C8.36694 3.07947 8.25155 2.80064 8.25166 2.50994C8.25176 2.21925 8.36734 1.9405 8.57297 1.73501C8.7786 1.52953 9.05744 1.41415 9.34815 1.41425C9.63885 1.41436 9.91761 1.52994 10.1231 1.73556L10.9002 2.51283L12.4309 0.982252ZM13.9779 2.53434C13.9855 2.52718 13.993 2.51991 14.0003 2.51252C14.2072 2.31304 14.4841 2.20278 14.7714 2.20548C15.0587 2.20818 15.3335 2.32362 15.5366 2.52695C15.7396 2.73027 15.8547 3.00521 15.857 3.29254C15.8592 3.57988 15.7486 3.85662 15.5488 4.06315C15.5425 4.0695 15.5362 4.07592 15.53 4.08241L13.9997 5.61273L12.4497 4.0625L13.9779 2.53434ZM10.8998 5.61238L4.32086 12.1911C4.15964 12.5756 3.96318 12.9813 3.60563 13.6802H5.93195L12.4499 7.16247L10.8998 5.61238Z" fill="white"/>
</svg>
