<svg width="16" height="16" viewBox="0 0 16 16" fill="none" xmlns="http://www.w3.org/2000/svg">
<path d="M6.88144 8.89002L6.88143 8.89002L6.88048 8.89294L6.37202 10.455C6.32133 10.594 6.23056 10.715 6.11042 10.8035C5.99444 10.8852 5.8561 10.9293 5.71418 10.9297C5.57123 10.93 5.43169 10.886 5.3148 10.8037C5.19949 10.7224 5.11163 10.6076 5.06369 10.4751L4.54936 8.89206L4.54903 8.89103C4.39511 8.42074 4.13312 7.99307 3.78409 7.64233C3.43505 7.29159 3.00868 7.02754 2.53916 6.87137L2.53917 6.87135L2.53543 6.87014L0.968819 6.36268C0.833425 6.31619 0.715674 6.22895 0.631736 6.11288C0.54723 5.99603 0.501192 5.85575 0.500023 5.71152C0.498854 5.56729 0.542613 5.42628 0.625214 5.30807C0.706508 5.19174 0.821449 5.10316 0.9545 5.0542L2.53445 4.54603L2.53449 4.54618L2.5463 4.54205C2.99978 4.38358 3.4113 4.1241 3.74978 3.78321C4.08825 3.44233 4.34483 3.02897 4.50013 2.57437L4.50017 2.57438L4.5023 2.56787L5.02374 0.970191C5.06989 0.834364 5.15703 0.716195 5.27315 0.631985C5.38981 0.547389 5.52992 0.501267 5.67399 0.500026C5.81806 0.498784 5.95894 0.542484 6.07703 0.625057C6.19352 0.706508 6.28213 0.821791 6.3309 0.955247L6.84507 2.53439L6.84505 2.53439L6.84622 2.53788C7.00216 3.0051 7.26485 3.42953 7.61346 3.77748C7.96206 4.12544 8.38697 4.38732 8.85445 4.54235L8.85692 4.54316L10.4283 5.05521L10.4282 5.05524L10.434 5.05704C10.5727 5.10039 10.6943 5.18617 10.7816 5.3023C10.869 5.41844 10.9177 5.55908 10.921 5.70441C10.9242 5.84973 10.8817 5.9924 10.7996 6.1123C10.7189 6.23016 10.6038 6.32018 10.4702 6.3702L8.88991 6.88152L8.8899 6.8815L8.88547 6.88298C8.41852 7.0389 7.99432 7.30146 7.64647 7.64983C7.29862 7.99821 7.03669 8.42282 6.88144 8.89002ZM12.1602 9.92603C12.1603 9.92594 12.1603 9.92585 12.1603 9.92576C12.1873 9.84315 12.2396 9.77112 12.3097 9.71985C12.3799 9.66852 12.4644 9.6406 12.5514 9.64002C12.6383 9.63945 12.7232 9.66626 12.7941 9.71665C12.8643 9.76655 12.9172 9.83707 12.9454 9.91841L13.2322 10.7982L13.2322 10.7982L13.2336 10.8024C13.3188 11.0564 13.462 11.2872 13.6517 11.4764C13.8415 11.6656 14.0726 11.8081 14.3269 11.8927L14.3291 11.8934L15.2022 12.1792L15.2022 12.1792L15.209 12.1813C15.2923 12.2073 15.3653 12.2589 15.4175 12.3288C15.4698 12.3987 15.4986 12.4834 15.5 12.5707C15.5013 12.658 15.475 12.7435 15.4249 12.8149C15.3754 12.8855 15.3052 12.9388 15.2241 12.9675L14.3466 13.254L14.3455 13.2544C14.0917 13.3379 13.8583 13.48 13.6663 13.6749C13.4784 13.8641 13.3363 14.0939 13.251 14.3466L13.251 14.3466L13.2492 14.3518L12.9673 15.2184C12.946 15.279 12.9111 15.334 12.8653 15.3791C12.8187 15.4249 12.7621 15.4593 12.7 15.4794C12.6378 15.4996 12.5719 15.505 12.5073 15.4953L12.4328 15.9897L12.5073 15.4953C12.4431 15.4856 12.382 15.4612 12.3288 15.424C12.2604 15.3752 12.2084 15.3067 12.1799 15.2277L11.8935 14.3516C11.8934 14.3511 11.8932 14.3506 11.8931 14.3502C11.8103 14.0927 11.6676 13.8599 11.4762 13.6684C11.2861 13.4783 11.055 13.3359 10.8002 13.2499L10.8002 13.2498L10.7943 13.2479L9.92387 12.9661C9.92368 12.966 9.92348 12.966 9.92328 12.9659C9.8409 12.9388 9.76908 12.8865 9.71797 12.8164C9.66673 12.7461 9.6389 12.6614 9.63845 12.5744C9.63799 12.4874 9.66492 12.4025 9.71541 12.3317C9.76545 12.2615 9.8361 12.2087 9.91751 12.1806L10.7976 11.8936L10.7976 11.8937L10.8069 11.8905C11.0578 11.8032 11.285 11.659 11.4709 11.4692C11.6567 11.2794 11.7961 11.0492 11.8781 10.7965L11.8782 10.7963L12.1602 9.92603Z" stroke="#F7F7F7" stroke-opacity="0.7"/>
</svg>
