<svg width="19" height="18" viewBox="0 0 19 18" fill="none" xmlns="http://www.w3.org/2000/svg">
<path d="M0.600524 13.2995L5.03037 17.7001C5.1259 17.7953 5.23945 17.8708 5.36448 17.9223C5.4895 17.9738 5.62355 18.0002 5.75889 18H18.1252V15.9527H10.9554L18.3972 8.56001C19.2009 7.76259 19.2009 6.46257 18.3972 5.66516L13.2955 0.598147C12.9086 0.215092 12.3847 0 11.8385 0C11.2922 0 10.7683 0.215092 10.3814 0.598147L5.48685 5.45941L0.588159 10.4169C0.20895 10.8028 -0.0022946 11.3214 1.88025e-05 11.8607C0.00233221 12.4 0.218018 12.9168 0.600524 13.2995ZM11.8385 2.04557L16.9391 7.11258L14.2744 9.75971L9.17376 4.6927L11.8385 2.04557ZM6.9511 6.89966L7.71672 6.14012L12.8174 11.2071L8.12168 15.8719C8.09661 15.8976 8.07288 15.9246 8.05058 15.9527H6.18549L2.05859 11.851L6.9511 6.89966Z" fill="#F7F7F7"/>
</svg>
