<svg width="4" height="10" viewBox="0 0 4 10" fill="none" xmlns="http://www.w3.org/2000/svg">
<path d="M0.0972261 1.08893C0.0449884 0.50387 0.505873 0 1.09326 0H2.91963C3.50232 0 3.9616 0.496196 3.91665 1.07715L3.60713 5.07715C3.56683 5.59795 3.13247 6 2.61011 6H1.45041C0.932586 6 0.50042 5.6047 0.454369 5.08893L0.0972261 1.08893Z" fill="black"/>
<path d="M0.5 8C0.5 7.44772 0.947715 7 1.5 7H2.5C3.05228 7 3.5 7.44772 3.5 8V9C3.5 9.55228 3.05228 10 2.5 10H1.5C0.947715 10 0.5 9.55228 0.5 9V8Z" fill="black"/>
</svg>
