<svg width="18" height="22" viewBox="0 0 18 22" fill="none" xmlns="http://www.w3.org/2000/svg">
<path fill-rule="evenodd" clip-rule="evenodd" d="M3 0C2.20435 0 1.44129 0.31607 0.87868 0.87868C0.31607 1.44129 0 2.20435 0 3V19C0 19.7957 0.31607 20.5587 0.87868 21.1213C1.44129 21.6839 2.20435 22 3 22H15C15.7957 22 16.5587 21.6839 17.1213 21.1213C17.6839 20.5587 18 19.7957 18 19V7.342V7.34188C18 6.94222 17.92 6.5466 17.765 6.17825C17.6099 5.80997 17.3829 5.47638 17.0972 5.19705L17.097 5.19688L12.6572 0.855047L12.6571 0.855C12.0967 0.306987 11.344 9.75728e-05 10.5601 0H10.56H3ZM2.29289 2.29289C2.48043 2.10536 2.73478 2 3 2H10V5C10 5.79565 10.3161 6.55871 10.8787 7.12132C11.4413 7.68393 12.2044 8 13 8H16V19C16 19.2652 15.8946 19.5196 15.7071 19.7071C15.5196 19.8946 15.2652 20 15 20H3C2.73478 20 2.48043 19.8946 2.29289 19.7071C2.10536 19.5196 2 19.2652 2 19V3C2 2.73478 2.10536 2.48043 2.29289 2.29289ZM15.0577 6L12 3.00977V5C12 5.26522 12.1054 5.51957 12.2929 5.70711C12.4804 5.89464 12.7348 6 13 6H15.0577Z" fill="white"/>
</svg>
