<svg width="12" height="13" viewBox="0 0 12 13" fill="none" xmlns="http://www.w3.org/2000/svg">
<path d="M11.3333 0H0.666667C0.489856 0 0.320287 0.0720868 0.195262 0.200402C0.070238 0.328718 0 0.502751 0 0.684216V2.45634C0 2.81418 0.142 3.16587 0.388667 3.41903L4 7.12542V12.3159C4.00013 12.4325 4.02925 12.5471 4.0846 12.6489C4.13995 12.7507 4.2197 12.8363 4.3163 12.8976C4.41289 12.9589 4.52314 12.9939 4.6366 12.9993C4.75006 13.0046 4.86298 12.9802 4.96467 12.9283L7.63133 11.5598C7.85733 11.4435 8 11.2068 8 10.9475V7.12542L11.6113 3.41903C11.858 3.16587 12 2.81418 12 2.45634V0.684216C12 0.502751 11.9298 0.328718 11.8047 0.200402C11.6797 0.0720868 11.5101 0 11.3333 0Z" fill="#F5F3C2"/>
</svg>
