<svg width="14" height="12" viewBox="0 0 14 12" fill="none" xmlns="http://www.w3.org/2000/svg">
<path fill-rule="evenodd" clip-rule="evenodd" d="M4.28313 1.08985e-05C5.08206 1.08985e-05 5.86155 0.209333 6.53894 0.60472C6.701 0.699303 6.85495 0.803189 7.0008 0.916378C7.14665 0.803189 7.3006 0.699303 7.46266 0.60472C8.14005 0.209333 8.91954 1.08985e-05 9.71847 1.08985e-05C10.2879 -0.0012432 10.852 0.105747 11.3779 0.31477C11.8851 0.51555 12.3472 0.807695 12.7392 1.17532C13.1309 1.54185 13.4441 1.97793 13.6613 2.45916C13.8865 2.95999 14.0016 3.49182 14 4.03916C14 4.55549 13.8898 5.09352 13.671 5.64086C13.4895 6.09827 13.2254 6.57273 12.8899 7.05185C12.3584 7.81006 11.6275 8.60084 10.72 9.40246C9.21448 10.7313 7.72681 11.6476 7.66361 11.6864L7.27954 11.9221C7.10938 12.026 6.8906 12.026 6.72045 11.9221L6.33637 11.6864C6.27317 11.6492 4.78388 10.7313 3.28 9.40246C2.37249 8.60084 1.64162 7.81006 1.11008 7.05185C0.774626 6.57273 0.512096 6.09827 0.328973 5.64086C0.110198 5.09352 0 4.55549 0 4.03916C0 3.49182 0.115059 2.95999 0.340317 2.45916C0.556949 1.97762 0.870233 1.54143 1.26241 1.17532C1.65621 0.80629 2.11483 0.51634 2.62368 0.31477C3.15036 0.105447 3.70783 1.08985e-05 4.28313 1.08985e-05ZM11.7143 2.27054L11.713 2.2694C11.4609 2.03289 11.1602 1.84183 10.8258 1.70946L10.8239 1.70871C10.4765 1.57062 10.1017 1.49917 9.72178 1.50001L9.71847 1.50001C9.18079 1.50001 8.66289 1.64098 8.21881 1.90019C8.11271 1.96212 8.01342 2.02923 7.92045 2.10139L7.2392 2.63008L7.0008 2.81509L6.80713 2.6648L6.08115 2.10139C5.98818 2.02923 5.88894 1.96214 5.78284 1.90021C5.33876 1.64101 4.82081 1.50001 4.28313 1.50001C3.8938 1.50001 3.52462 1.57083 3.17768 1.70871L3.1761 1.70934C2.83997 1.84249 2.54245 2.03148 2.28809 2.26984L2.28601 2.27179C2.03705 2.50421 1.8419 2.77755 1.70831 3.07445C1.56922 3.38374 1.5 3.70612 1.5 4.03916C1.5 4.34045 1.56432 4.68997 1.72183 5.08413C1.85511 5.41684 2.05785 5.7901 2.33848 6.19102C2.78475 6.82754 3.42808 7.53186 4.27322 8.2784C4.97248 8.89626 5.67451 9.4237 6.21223 9.80246C6.57929 10.061 6.85977 10.2433 6.99949 10.3322C7.37154 10.0948 8.5471 9.31955 9.72736 8.27787C10.5723 7.53147 11.2155 6.82721 11.6617 6.19079C11.9444 5.78689 12.1468 5.41522 12.2768 5.08762L12.2781 5.08413C12.4357 4.68985 12.5 4.34052 12.5 4.03916V4.03472C12.501 3.70492 12.4325 3.38434 12.2936 3.07521C12.1592 2.77771 11.9635 2.50378 11.7143 2.27054Z" fill="#F5F3C2"/>
</svg>
