<svg width="14" height="12" viewBox="0 0 14 12" fill="none" xmlns="http://www.w3.org/2000/svg">
<path d="M13.6613 2.45916C13.4441 1.97793 13.1309 1.54185 12.7392 1.17532C12.3472 0.807695 11.8851 0.51555 11.3779 0.31477C10.852 0.105747 10.288 -0.0012432 9.71847 1.08985e-05C8.91954 1.08985e-05 8.14005 0.209333 7.46266 0.60472C7.3006 0.699303 7.14665 0.803189 7.0008 0.916378C6.85495 0.803189 6.701 0.699303 6.53894 0.60472C5.86155 0.209333 5.08206 1.08985e-05 4.28313 1.08985e-05C3.70783 1.08985e-05 3.15036 0.105447 2.62368 0.31477C2.11483 0.51634 1.65621 0.80629 1.26241 1.17532C0.870233 1.54143 0.556949 1.97762 0.340317 2.45916C0.115059 2.95998 0 3.49182 0 4.03916C0 4.55549 0.110198 5.09352 0.328973 5.64086C0.512096 6.09827 0.774626 6.57273 1.11008 7.05185C1.64162 7.81006 2.37249 8.60084 3.28 9.40246C4.78388 10.7313 6.27317 11.6492 6.33637 11.6864L6.72045 11.9221C6.8906 12.026 7.10938 12.026 7.27954 11.9221L7.66361 11.6864C7.72681 11.6476 9.21448 10.7313 10.72 9.40246C11.6275 8.60084 12.3584 7.81006 12.8899 7.05185C13.2254 6.57273 13.4895 6.09827 13.671 5.64086C13.8898 5.09352 14 4.55549 14 4.03916C14.0016 3.49182 13.8865 2.95998 13.6613 2.45916V2.45916Z" fill="#F5F3C2"/>
</svg>
