
<svg width="17" height="15" viewBox="0 0 17 15" fill="none" xmlns="http://www.w3.org/2000/svg">
<path fill-rule="evenodd" clip-rule="evenodd" d="M14.0625 5.70277C13.7576 5.65162 13.4444 5.625 13.125 5.625C11.5346 5.625 10.0983 6.28505 9.07521 7.34617L7.96875 5.625L4.6875 9.84375L3.75 8.4375L1.875 12.1875H7.57777C7.69069 12.8606 7.92313 13.4931 8.25252 14.0625H1.5625C1.1481 14.0625 0.750671 13.8979 0.457646 13.6049C0.16462 13.3118 0 12.9144 0 12.5V1.5625C0 1.1481 0.16462 0.750671 0.457646 0.457646C0.750671 0.16462 1.1481 0 1.5625 0H12.5C12.9144 0 13.3118 0.16462 13.6049 0.457646C13.8979 0.750671 14.0625 1.1481 14.0625 1.5625V5.70277ZM5.15625 5.15625C5.15625 5.9329 4.52665 6.5625 3.75 6.5625C2.97335 6.5625 2.34375 5.9329 2.34375 5.15625C2.34375 4.3796 2.97335 3.75 3.75 3.75C4.52665 3.75 5.15625 4.3796 5.15625 5.15625Z" fill="white"/>
<path d="M12.1875 7.5H14.0625V10.9375H16.875L13.125 15L9.375 10.9375H12.1875V7.5Z" fill="white"/>
</svg>
