<svg width="22" height="22" viewBox="0 0 22 22" fill="none" xmlns="http://www.w3.org/2000/svg">
<path fill-rule="evenodd" clip-rule="evenodd" d="M0 11V4.4H4.95V3.3C4.95 2.86664 5.03536 2.43752 5.2012 2.03714C5.36704 1.63677 5.61011 1.27298 5.91655 0.966548C6.22298 0.660114 6.58677 0.417038 6.98714 0.251198C7.38752 0.0853571 7.81664 0 8.25 0C8.68336 0 9.11248 0.0853571 9.51286 0.251198C9.91323 0.417038 10.277 0.660114 10.5835 0.966548C10.8899 1.27298 11.133 1.63677 11.2988 2.03714C11.4646 2.43752 11.55 2.86664 11.55 3.3V4.4H16.5V11H18.7C19.5752 11 20.4146 11.3477 21.0335 11.9665C21.6523 12.5854 22 13.4248 22 14.3C22 15.1752 21.6523 16.0146 21.0335 16.6335C20.4146 17.2523 19.5752 17.6 18.7 17.6H16.5V22H0V17.6H2.2C3.07521 17.6 3.91458 17.2523 4.53345 16.6335C5.15232 16.0146 5.5 15.1752 5.5 14.3C5.5 13.4248 5.15232 12.5854 4.53345 11.9665C3.91458 11.3477 3.07521 11 2.2 11H0Z" fill="#F5F3C2"/>
</svg>
