<svg width="41" height="41" viewBox="0 0 41 41" fill="none" xmlns="http://www.w3.org/2000/svg">
<path fill-rule="evenodd" clip-rule="evenodd" d="M21.0221 0.0649403C22.1783 0.35399 22.8813 1.52559 22.5922 2.68179L21.5132 6.99761C21.2242 8.15381 20.0525 8.85677 18.8963 8.56772C17.7401 8.27867 17.0371 7.10707 17.3262 5.95087L18.4051 1.63505C18.6942 0.478853 19.8658 -0.224109 21.0221 0.0649403ZM8.62981 2.15842C8.62981 0.96664 7.66365 0.000510476 6.47183 0.000510476C5.28001 0.000510476 4.31385 0.96664 4.31385 2.15842C3.12203 2.15842 2.15587 3.12455 2.15587 4.31633C2.15587 5.50811 3.12203 6.47424 4.31385 6.47424C4.31385 7.66602 5.28001 8.63215 6.47183 8.63215C7.66365 8.63215 8.62981 7.66602 8.62981 6.47424C9.82163 6.47424 10.7878 5.50811 10.7878 4.31633C10.7878 3.12455 9.82163 2.15842 8.62981 2.15842ZM34.5256 2.15842C33.3337 2.15842 32.3676 3.12455 32.3676 4.31633C32.3676 5.50811 33.3337 6.47424 34.5256 6.47424C34.5255 7.66602 35.4917 8.63215 36.6835 8.63215C37.8753 8.63215 38.8415 7.66602 38.8415 6.47424C40.0333 6.47424 40.9995 5.50811 40.9995 4.31633C40.9995 3.12455 40.0333 2.15842 38.8415 2.15842C38.8415 0.96664 37.8753 0.000510476 36.6835 0.000510476C35.4917 0.000510476 34.5255 0.96664 34.5256 2.15842ZM29.5775 14.4738C30.4203 13.6311 30.4203 12.2648 29.5775 11.4221C28.7348 10.5794 27.3684 10.5794 26.5257 11.4221L24.3677 13.58C23.525 14.4227 23.525 15.789 24.3677 16.6318C25.2105 17.4745 26.5768 17.4745 27.4196 16.6318L29.5775 14.4738ZM40.9351 19.9773C41.2241 21.1335 40.5211 22.3051 39.3649 22.5941L35.0489 23.6731C33.8927 23.9621 32.7211 23.2592 32.432 22.103C32.1429 20.9468 32.8459 19.7752 34.0022 19.4861L38.3181 18.4072C39.4744 18.1181 40.646 18.8211 40.9351 19.9773ZM34.5256 32.3692C33.3337 32.3692 32.3676 33.3353 32.3676 34.5271C32.3676 35.7189 33.3337 36.685 34.5256 36.685C34.5255 37.8768 35.4917 38.8429 36.6835 38.8429C37.8753 38.8429 38.8415 37.8768 38.8415 36.685C40.0333 36.685 40.9995 35.7189 40.9995 34.5271C40.9995 33.3353 40.0333 32.3692 38.8415 32.3692C38.8415 31.1774 37.8753 30.2113 36.6835 30.2113C35.4917 30.2113 34.5255 31.1774 34.5256 32.3692ZM13.353 13.58C12.8533 13.0804 12.1407 12.857 11.4453 12.982C10.7498 13.107 10.1596 13.5646 9.86526 14.2069L0.391732 34.8797L0.390532 34.8823C0.0245191 35.6839 -0.0877746 36.5781 0.0686984 37.4452C0.225171 38.3124 0.642936 39.111 1.26601 39.734C1.88909 40.3571 2.68771 40.7748 3.55488 40.9313C4.42204 41.0878 5.31631 40.9755 6.11786 40.6095L6.12056 40.6082L26.7918 31.135C27.5589 30.7835 28.0507 30.0171 28.0507 29.1733V29.1711C28.0507 28.5988 27.8234 28.05 27.4187 27.6453L13.353 13.58ZM4.31655 36.675L12.4959 18.8264L22.1737 28.5039L4.32512 36.6836L4.32498 36.6837C4.32381 36.6842 4.32253 36.6843 4.32128 36.6841L4.31954 36.6835L4.31786 36.6823C4.31729 36.6817 4.31683 36.681 4.31651 36.6803C4.3163 36.6798 4.31615 36.6794 4.31606 36.6788L4.31597 36.6774L4.31648 36.6751L4.31655 36.675Z" fill="white"/>
</svg>
