<svg width="24" height="10" viewBox="0 0 24 10" fill="none" xmlns="http://www.w3.org/2000/svg">
<path d="M11.4425 0C14.6118 0 17.482 1.2375 19.6946 3.25L21.9549 0.8875C22.7084 0.1 24 0.65 24 1.7625V8.75C24 9.4375 23.4618 10 22.804 10H16.1187C15.0543 10 14.5161 8.65 15.2695 7.8625L17.5538 5.475C15.8914 4.025 13.7746 3.125 11.4305 3.125C7.65131 3.125 4.38635 5.425 2.83161 8.75C2.5087 9.45 1.74329 9.8 1.03768 9.55C0.188551 9.2625 -0.241993 8.25 0.140713 7.4C2.19775 3.025 6.47927 0 11.4425 0Z" fill="#F7F7F7"/>
</svg>
