<svg width="51" height="49" viewBox="0 0 51 49" fill="none" xmlns="http://www.w3.org/2000/svg">
<path d="M15.6821 31.1386C20.9386 31.9553 26.4045 24.2444 29.4823 20.0425C29.4491 25.2509 29.2419 34.7003 33.9494 37.1777C28.6929 36.361 23.227 44.0718 20.1492 48.2738C20.1825 43.0653 20.3896 33.616 15.6821 31.1386Z" fill="#F5F3C2"/>
<path d="M0.880324 10.5193C3.97643 9.32119 4.52592 3.44826 4.87898 0.216913C6.48558 3.0427 9.32095 8.21511 12.6383 8.08592C9.54217 9.28402 8.99268 15.1569 8.63962 18.3883C7.03302 15.5625 4.19765 10.3901 0.880324 10.5193Z" fill="#F5F3C2"/>
<path d="M45.1207 21.9728C46.7064 22.8405 49.3432 21.0069 50.8118 20.0192C50.2001 21.68 49.0433 24.6761 50.2619 26.0112C48.6762 25.1435 46.0394 26.977 44.5707 27.9648C45.1825 26.304 46.3393 23.3079 45.1207 21.9728Z" fill="#F5F3C2"/>
</svg>
