<svg width="16" height="16" viewBox="0 0 16 16" fill="none" xmlns="http://www.w3.org/2000/svg">
<path d="M1.77778 16H14.2222C15.2027 16 16 15.2027 16 14.2222V4.44444C16.0001 4.3277 15.9772 4.21209 15.9325 4.10424C15.8878 3.99639 15.8222 3.89843 15.7396 3.816L12.184 0.260445C12.1016 0.177741 12.0036 0.112152 11.8958 0.0674537C11.7879 0.0227557 11.6723 -0.000168399 11.5556 9.31265e-07H1.77778C0.797333 9.31265e-07 0 0.797334 0 1.77778V14.2222C0 15.2027 0.797333 16 1.77778 16ZM10.6667 14.2222H5.33333V9.77778H10.6667V14.2222ZM8.88889 3.55556H7.11111V1.77778H8.88889V3.55556ZM1.77778 1.77778H3.55556V5.33333H10.6667V1.77778H11.1876L14.2222 4.81244L14.2231 14.2222H12.4444V9.77778C12.4444 8.79733 11.6471 8 10.6667 8H5.33333C4.35289 8 3.55556 8.79733 3.55556 9.77778V14.2222H1.77778V1.77778Z" fill="white"/>
</svg>
