<svg width="345" height="227" viewBox="0 0 345 227" fill="none" xmlns="http://www.w3.org/2000/svg">
<mask id="path-1-inside-1" fill="white">
<path fill-rule="evenodd" clip-rule="evenodd" d="M293.325 226.646C321.67 226.646 344.648 203.668 344.648 175.323C344.648 146.978 321.67 124 293.325 124C273.154 124 255.7 135.637 247.311 152.564H195V197.728H247.138C255.457 214.847 273.013 226.646 293.325 226.646Z"/>
</mask>
<path d="M247.311 152.564V162.564H253.516L256.272 157.004L247.311 152.564ZM195 152.564V142.564H185V152.564H195ZM195 197.728H185V207.728H195V197.728ZM247.138 197.728L256.132 193.357L253.396 187.728H247.138V197.728ZM334.648 175.323C334.648 198.145 316.147 216.646 293.325 216.646V236.646C327.193 236.646 354.648 209.191 354.648 175.323H334.648ZM293.325 134C316.147 134 334.648 152.501 334.648 175.323H354.648C354.648 141.455 327.193 114 293.325 114V134ZM256.272 157.004C263.038 143.351 277.099 134 293.325 134V114C269.209 114 248.362 127.923 238.351 148.124L256.272 157.004ZM195 162.564H247.311V142.564H195V162.564ZM205 197.728V152.564H185V197.728H205ZM247.138 187.728H195V207.728H247.138V187.728ZM293.325 216.646C276.986 216.646 262.842 207.164 256.132 193.357L238.144 202.099C248.073 222.53 269.041 236.646 293.325 236.646V216.646Z" fill="#EC55A7" fill-opacity="0.4" mask="url(#path-1-inside-1)"/>
<path fill-rule="evenodd" clip-rule="evenodd" d="M191.766 5.17764C193.026 3.91771 195.18 4.81005 195.18 6.59186V174.636H154.09V100.965L65.8905 189.164L36.835 160.109L191.766 5.17764Z" fill="#EC55A7"/>
<path d="M226 51.3639C226 79.7311 203.004 102.727 174.637 102.727C146.27 102.727 123.273 79.7311 123.273 51.3639C123.273 22.9967 146.27 0.000488281 174.637 0.000488281C203.004 0.000488281 226 22.9967 226 51.3639Z" fill="#EC55A7"/>
<path d="M226 174.637C226 203.004 203.004 226 174.637 226C146.27 226 123.273 203.004 123.273 174.637C123.273 146.27 146.27 123.273 174.637 123.273C203.004 123.273 226 146.27 226 174.637Z" fill="#EC55A7"/>
<path d="M102.727 174.637C102.727 203.004 79.7306 226 51.3634 226C22.9962 226 0 203.004 0 174.637C0 146.27 22.9962 123.273 51.3634 123.273C79.7306 123.273 102.727 146.27 102.727 174.637Z" fill="#EC55A7"/>
</svg>
