<svg width="19" height="18" viewBox="0 0 19 18" fill="none" xmlns="http://www.w3.org/2000/svg">
<path d="M0.0625 2H2.0625V0C0.9625 0 0.0625 0.9 0.0625 2ZM0.0625 10H2.0625V8H0.0625V10ZM4.0625 18H6.0625V16H4.0625V18ZM0.0625 6H2.0625V4H0.0625V6ZM10.0625 0H8.0625V2H10.0625V0ZM16.0625 0V2H18.0625C18.0625 0.9 17.1625 0 16.0625 0ZM2.0625 18V16H0.0625C0.0625 17.1 0.9625 18 2.0625 18ZM0.0625 14H2.0625V12H0.0625V14ZM6.0625 0H4.0625V2H6.0625V0ZM8.0625 18H10.0625V16H8.0625V18ZM16.0625 10H18.0625V8H16.0625V10ZM16.0625 18C17.1625 18 18.0625 17.1 18.0625 16H16.0625V18ZM16.0625 6H18.0625V4H16.0625V6ZM16.0625 14H18.0625V12H16.0625V14ZM12.0625 18H14.0625V16H12.0625V18ZM12.0625 2H14.0625V0H12.0625V2ZM4.0625 14H14.0625V4H4.0625V14ZM6.0625 6H12.0625V12H6.0625V6Z" fill="#F7F7F7"/>
</svg>
