<svg width="88" height="44" viewBox="0 0 88 44" fill="none" xmlns="http://www.w3.org/2000/svg">
<path d="M43.994 8.66674C40.3534 8.66674 37.0326 10.0565 34.6095 12.4518C32.2455 14.7922 30.7881 18.0485 30.6696 21.7931L30.6666 21.848V21.9058C30.8355 25.4771 32.6069 28.6207 35.8121 31.8857L37.8917 40.3833L37.9124 40.4469C38.2087 41.305 38.7774 42.0187 39.4943 42.5185C40.2378 43.0386 41.1473 43.3333 42.11 43.3333L46.2098 43.3218L46.272 43.316C47.1867 43.2406 48.0554 42.8926 48.7604 42.3192C49.4447 41.7586 49.9631 40.9901 50.1823 40.0828L52.5403 31.2702C55.6033 28.3982 57.3333 25.0754 57.3333 21.3395C57.3311 19.6661 56.9837 18.0103 56.312 16.4705C55.6402 14.9307 54.6578 13.5385 53.4231 12.3767C50.8971 9.98687 47.5131 8.65538 43.994 8.66674V8.66674ZM36.7216 14.4801C37.6718 13.5431 38.805 12.8014 40.0541 12.2987C41.3031 11.7959 42.6428 11.5425 43.994 11.5532C46.7415 11.541 49.3848 12.5781 51.3583 14.4426C52.3094 15.3355 53.0663 16.4061 53.5839 17.5906C54.1015 18.775 54.3692 20.049 54.371 21.3366C54.371 24.2 53.0291 26.9015 50.2119 29.4413L49.892 29.7302L48.5708 34.6681H39.5387L38.5049 30.4381L38.2175 30.1492C35.113 27.0749 33.7741 24.4976 33.6289 21.8307C33.7415 18.8026 34.9146 16.2687 36.7216 14.483V14.4801ZM40.2467 37.5575H47.8006L47.3118 39.3691L47.3029 39.4067C47.2361 39.6788 47.0801 39.9223 46.8586 40.1001C46.6337 40.2835 46.3588 40.399 46.0676 40.4324L42.107 40.4469C41.7887 40.4478 41.4781 40.3519 41.2184 40.1724C41.0022 40.0239 40.8354 39.817 40.7385 39.5772L40.2438 37.5575H40.2467Z" fill="#F5F3C2"/>
<path fill-rule="evenodd" clip-rule="evenodd" d="M64.0001 22C64.0001 18.4893 63.0759 15.0404 61.3206 12L63.63 10.6667C65.6194 14.1124 66.6667 18.0212 66.6667 22C66.6667 25.9788 65.6194 29.8876 63.63 33.3333L61.3206 32C63.0759 28.9596 64.0001 25.5107 64.0001 22Z" fill="#F5F3C2"/>
<path fill-rule="evenodd" clip-rule="evenodd" d="M74.6667 22C74.6667 16.6169 73.2497 11.3286 70.5581 6.66667L72.8675 5.33334C75.7931 10.4006 77.3333 16.1488 77.3333 22C77.3333 27.8512 75.7931 33.5994 72.8675 38.6667L70.5581 37.3333C73.2497 32.6714 74.6667 27.3831 74.6667 22Z" fill="#F5F3C2"/>
<path fill-rule="evenodd" clip-rule="evenodd" d="M85.3334 22C85.3334 14.7445 83.4235 7.61679 79.7958 1.33333L82.1052 0C85.967 6.68884 88.0001 14.2764 88.0001 22C88.0001 29.7236 85.967 37.3111 82.1052 44L79.7958 42.6667C83.4235 36.3832 85.3334 29.2555 85.3334 22Z" fill="#F5F3C2"/>
<path fill-rule="evenodd" clip-rule="evenodd" d="M23.9999 22C23.9999 18.4893 24.9241 15.0404 26.6794 12L24.37 10.6667C22.3806 14.1124 21.3333 18.0212 21.3333 22C21.3333 25.9788 22.3806 29.8876 24.37 33.3333L26.6794 32C24.9241 28.9596 23.9999 25.5107 23.9999 22Z" fill="#F5F3C2"/>
<path fill-rule="evenodd" clip-rule="evenodd" d="M13.3333 22C13.3333 16.6169 14.7503 11.3286 17.4419 6.66667L15.1325 5.33334C12.2069 10.4006 10.6667 16.1488 10.6667 22C10.6667 27.8512 12.2069 33.5994 15.1325 38.6667L17.4419 37.3333C14.7503 32.6714 13.3333 27.3831 13.3333 22Z" fill="#F5F3C2"/>
<path fill-rule="evenodd" clip-rule="evenodd" d="M2.6666 22C2.6666 14.7445 4.57646 7.61679 8.20422 1.33333L5.89482 0C2.03301 6.68884 -6.70994e-05 14.2764 -6.70994e-05 22C-6.70994e-05 29.7236 2.033 37.3111 5.89481 44L8.20421 42.6667C4.57646 36.3832 2.6666 29.2555 2.6666 22Z" fill="#F5F3C2"/>
</svg>
