<svg width="34" height="34" viewBox="0 0 34 34" fill="none" xmlns="http://www.w3.org/2000/svg">
<path d="M8.18479 19.0843L14.4783 25.5692L11.962 28.1625L14.4819 30.7575L11.9638 33.3508L7.55615 28.8117L2.51812 34L0 31.4068L5.03803 26.2166L0.630421 21.6794L3.14854 19.0861L5.66667 21.6775L8.18301 19.0843H8.18479ZM0.972344 0L7.28724 0.00550195L28.3316 21.6794L30.8515 19.0861L33.3696 21.6794L28.9638 26.2185L34 31.4068L31.4819 34L26.4438 28.8117L22.0362 33.3508L19.5181 30.7575L22.0362 28.1625L0.977687 6.47575L0.972344 0ZM26.7181 0L33.0277 0.00550195L33.0312 6.46658L25.8134 13.8978L19.5163 7.41475L26.7181 0Z" fill="#F5F3C2"/>
</svg>
