<svg width="345" height="227" viewBox="0 0 345 227" fill="none" xmlns="http://www.w3.org/2000/svg">
<mask id="path-1-inside-1" fill="white">
<path fill-rule="evenodd" clip-rule="evenodd" d="M220.529 197.728C212.075 214.498 194.699 226 174.637 226C146.27 226 123.273 203.004 123.273 174.637C123.273 153.225 136.376 134.873 155 127.161V97.5L196.091 59V127.955C207.009 132.981 215.862 141.725 221.029 152.564H247.311C255.7 135.637 273.154 124 293.325 124C321.67 124 344.648 146.978 344.648 175.323C344.648 203.668 321.67 226.646 293.325 226.646C273.013 226.646 255.457 214.847 247.138 197.728H220.529Z"/>
</mask>
<path d="M220.529 197.728V187.728H214.372L211.6 193.227L220.529 197.728ZM155 127.161L158.826 136.4L165 133.843V127.161H155ZM155 97.5L148.163 90.2026L145 93.1659V97.5H155ZM196.091 59H206.091V35.9269L189.253 51.7026L196.091 59ZM196.091 127.955H186.091V134.36L191.909 137.039L196.091 127.955ZM221.029 152.564L212.002 156.867L214.717 162.564H221.029V152.564ZM247.311 152.564V162.564H253.516L256.272 157.004L247.311 152.564ZM247.138 197.728L256.132 193.357L253.396 187.728H247.138V197.728ZM211.6 193.227C204.779 206.756 190.779 216 174.637 216V236C198.62 236 219.371 222.24 229.459 202.23L211.6 193.227ZM174.637 216C151.792 216 133.273 197.481 133.273 174.637H113.273C113.273 208.527 140.747 236 174.637 236V216ZM133.273 174.637C133.273 157.409 143.808 142.618 158.826 136.4L151.174 117.922C128.943 127.127 113.273 149.04 113.273 174.637H133.273ZM165 127.161V97.5H145V127.161H165ZM161.837 104.797L202.928 66.2974L189.253 51.7026L148.163 90.2026L161.837 104.797ZM186.091 59V127.955H206.091V59H186.091ZM191.909 137.039C200.701 141.086 207.841 148.137 212.002 156.867L230.056 148.261C223.884 135.313 213.317 124.876 200.272 118.871L191.909 137.039ZM221.029 162.564H247.311V142.564H221.029V162.564ZM256.272 157.004C263.038 143.351 277.099 134 293.325 134V114C269.209 114 248.362 127.923 238.351 148.124L256.272 157.004ZM293.325 134C316.147 134 334.648 152.501 334.648 175.323H354.648C354.648 141.455 327.193 114 293.325 114V134ZM334.648 175.323C334.648 198.145 316.147 216.646 293.325 216.646V236.646C327.193 236.646 354.648 209.191 354.648 175.323H334.648ZM293.325 216.646C276.986 216.646 262.842 207.164 256.132 193.357L238.144 202.099C248.073 222.53 269.041 236.646 293.325 236.646V216.646ZM247.138 187.728H220.529V207.728H247.138V187.728Z" fill="#F5F3C2" fill-opacity="0.4" mask="url(#path-1-inside-1)"/>
<path d="M154.09 100.965L65.8905 189.164L36.835 160.109L191.766 5.17764C193.026 3.91771 195.18 4.81004 195.18 6.59185V59.8745L154.09 100.965Z" fill="#F5F3C2"/>
<path d="M226 51.3639C226 79.7311 203.004 102.727 174.637 102.727C146.27 102.727 123.273 79.7311 123.273 51.3639C123.273 22.9967 146.27 0.000488281 174.637 0.000488281C203.004 0.000488281 226 22.9967 226 51.3639Z" fill="#F5F3C2"/>
<path d="M102.727 174.637C102.727 203.004 79.7306 226 51.3634 226C22.9962 226 0 203.004 0 174.637C0 146.27 22.9962 123.273 51.3634 123.273C79.7306 123.273 102.727 146.27 102.727 174.637Z" fill="#F5F3C2"/>
</svg>
