<svg width="44" height="33" viewBox="0 0 44 33" fill="none" xmlns="http://www.w3.org/2000/svg">
<path fill-rule="evenodd" clip-rule="evenodd" d="M0 28.8746V4.12494V0H4.12494H39.8744H44L43.9993 4.12494V28.8746V32.9995H39.8744H4.12494L0 33V28.8746ZM41.2494 4.12494V28.8746V30.2496H39.8744H4.12494H2.74996V28.8746V4.12494V2.74996H4.12494H39.8744H41.2494V4.12494ZM34.375 8.24977H9.6254H8.25042V9.62475V10.9997H9.6254H34.375H35.75V9.62475V8.24977H34.375ZM34.375 15.1247H9.6254H8.25042V16.4996V17.8746H9.6254H34.375H35.75V16.4996V15.1247H34.375ZM9.6254 21.9996H26.1252H27.5001V23.3745V24.7495H26.1252H9.6254H8.25042V23.3745V21.9996H9.6254Z" fill="#F5F3C2"/>
</svg>
