<svg width="16" height="16" viewBox="0 0 16 16" fill="none" xmlns="http://www.w3.org/2000/svg">
<path d="M1.77778 14.4C1.77778 14.8243 1.96508 15.2313 2.29848 15.5314C2.63188 15.8314 3.08406 16 3.55556 16H12.4444C12.9159 16 13.3681 15.8314 13.7015 15.5314C14.0349 15.2313 14.2222 14.8243 14.2222 14.4V4.8H16V3.2H12.4444V1.6C12.4444 1.17565 12.2571 0.768687 11.9237 0.468629C11.5903 0.168571 11.1382 0 10.6667 0H5.33333C4.86184 0 4.40965 0.168571 4.07625 0.468629C3.74286 0.768687 3.55556 1.17565 3.55556 1.6V3.2H0V4.8H1.77778V14.4ZM5.33333 1.6H10.6667V3.2H5.33333V1.6ZM12.4444 4.8V14.4H3.55556V4.8H12.4444Z" fill="white"/>
<path d="M5.33333 6.4H7.11111V12.8H5.33333V6.4ZM8.88889 6.4H10.6667V12.8H8.88889V6.4Z" fill="white"/>
</svg>
