<svg width="15" height="21" viewBox="0 0 15 21" fill="none" xmlns="http://www.w3.org/2000/svg">
<path d="M10.8945 2C10.8945 3.10457 9.9991 4 8.89453 4C7.78996 4 6.89453 3.10457 6.89453 2C6.89453 0.895431 7.78996 0 8.89453 0C9.9991 0 10.8945 0.895431 10.8945 2Z" fill="white" />
<path d="M10.904 11.0565C10.484 10.9165 10.118 10.6375 9.873 10.2695L8.665 8.45651L8.018 12.3415L10.189 13.9695C10.5826 14.2642 10.8539 14.6935 10.951 15.1755L11.876 19.8025L9.915 20.1955L8.99 15.5705L6.473 13.6825L5.956 16.0705C5.849 16.5705 5.557 17.0055 5.136 17.2955L1.461 19.8235L0.328 18.1755L4.002 15.6485L5.806 7.30251L3.583 7.85851L1.789 11.4475L0 10.5525L1.794 6.96351C1.92335 6.70528 2.10705 6.47808 2.33248 6.29753C2.55791 6.11698 2.81974 5.98734 3.1 5.91751L6.293 5.12051C6.75534 5.00335 7.24439 5.05623 7.671 5.26951L9.105 5.98651C9.41559 6.14275 9.68051 6.37666 9.874 6.66551L11.537 9.16051L14.212 10.0525L13.579 11.9485L10.904 11.0565Z" fill="white"/>
</svg>
