<svg width="36" height="36" viewBox="0 0 36 36" fill="none" xmlns="http://www.w3.org/2000/svg">
<path d="M18 0C8.0748 0 0 8.0748 0 18C0 27.9252 8.0748 36 18 36C27.9252 36 36 27.9252 36 18C36 8.0748 27.9252 0 18 0ZM3.6 18C3.6 16.3818 3.8808 14.8284 4.3758 13.3758L7.2 16.2L10.8 19.8V23.4L14.4 27L16.2 28.8V32.2758C9.1098 31.3848 3.6 25.3296 3.6 18ZM29.394 26.7714C28.2186 25.8246 26.4366 25.2 25.2 25.2V23.4C25.2 22.4452 24.8207 21.5295 24.1456 20.8544C23.4705 20.1793 22.5548 19.8 21.6 19.8H14.4V14.4C15.3548 14.4 16.2705 14.0207 16.9456 13.3456C17.6207 12.6705 18 11.7548 18 10.8V9H19.8C20.7548 9 21.6705 8.62072 22.3456 7.94558C23.0207 7.27045 23.4 6.35478 23.4 5.4V4.6602C28.6704 6.8004 32.4 11.97 32.4 18C32.3997 21.1765 31.3421 24.2624 29.394 26.7714Z" fill="#F5F3C2"/>
</svg>
