<svg width="15" height="10" viewBox="0 0 15 10" fill="none" xmlns="http://www.w3.org/2000/svg">
<path d="M0.36 9L4.056 0.539999H5.424L9.12 9H7.56L6.708 6.972H2.736L1.872 9H0.36ZM3.276 5.664H6.168L4.716 2.304L3.276 5.664ZM14.0285 9H12.5885V8.22C12.0765 8.828 11.3925 9.132 10.5365 9.132C9.90447 9.132 9.36847 8.96 8.92847 8.616C8.49647 8.264 8.28047 7.776 8.28047 7.152C8.28047 6.472 8.51647 5.956 8.98847 5.604C9.46047 5.252 10.0805 5.076 10.8485 5.076C11.4645 5.076 12.0485 5.164 12.6005 5.34V5.22C12.6005 4.78 12.4645 4.444 12.1925 4.212C11.9285 3.98 11.5445 3.864 11.0405 3.864C10.4645 3.864 9.86047 3.996 9.22847 4.26L8.83247 3.096C9.61647 2.744 10.4205 2.568 11.2445 2.568C12.1645 2.568 12.8565 2.8 13.3205 3.264C13.7925 3.728 14.0285 4.388 14.0285 5.244V9ZM12.6245 6.708V6.348C12.1925 6.18 11.7085 6.096 11.1725 6.096C10.7165 6.096 10.3605 6.184 10.1045 6.36C9.84847 6.536 9.72047 6.784 9.72047 7.104C9.72047 7.392 9.83647 7.62 10.0685 7.788C10.3005 7.956 10.5925 8.04 10.9445 8.04C11.4325 8.04 11.8325 7.916 12.1445 7.668C12.4645 7.42 12.6245 7.1 12.6245 6.708Z" fill="white"/>
</svg>
