<svg width="520" height="900" viewBox="0 0 520 900" fill="none" xmlns="http://www.w3.org/2000/svg">
<path d="M351.786 111.568L102 111.568" stroke="#22253F"/>
<circle cx="513.416" cy="108.956" r="161.456" transform="rotate(90 513.416 108.956)" stroke="#22253F"/>
<circle cx="20.6909" cy="811.309" r="82.1106" transform="rotate(90 20.6909 811.309)" stroke="#22253F"/>
<circle cx="8.5" cy="103.5" r="93" transform="rotate(90 8.5 103.5)" stroke="#22253F"/>
<path d="M523 751.5C487.381 751.5 458.5 722.402 458.5 686.5C458.5 650.598 487.381 621.5 523 621.5C558.619 621.5 587.5 650.598 587.5 686.5C587.5 722.402 558.619 751.5 523 751.5Z" stroke="#22253F"/>
<path d="M21.344 953.5C-57.5488 953.5 -121.5 889.837 -121.5 811.309C-121.5 732.781 -57.5488 669.118 21.344 669.118C100.237 669.118 164.188 732.781 164.188 811.309C164.188 889.837 100.237 953.5 21.344 953.5Z" stroke="#22253F"/>
<circle cx="513.416" cy="108.956" r="110.518" transform="rotate(90 513.416 108.956)" stroke="#22253F"/>
<path d="M416.112 237.933L106.24 697.026" stroke="#22253F"/>
</svg>
