<svg width="14" height="16" viewBox="0 0 14 16" fill="none" xmlns="http://www.w3.org/2000/svg">
<path fill-rule="evenodd" clip-rule="evenodd" d="M13.4317 12.4444C11.3868 7.90489 8.99992 6.70844 8.99992 4.44444V1.77778H9.4999C9.63251 1.77778 9.75968 1.73095 9.85344 1.6476C9.94721 1.56425 9.99988 1.45121 9.99988 1.33333V0.444444C9.99988 0.32657 9.94721 0.213524 9.85344 0.130175C9.75968 0.0468252 9.63251 0 9.4999 0H4.5001C4.3675 0 4.24032 0.0468252 4.14656 0.130175C4.05279 0.213524 4.00012 0.32657 4.00012 0.444444V1.33333C4.00012 1.45121 4.05279 1.56425 4.14656 1.6476C4.24032 1.73095 4.3675 1.77778 4.5001 1.77778H5.00008V4.44444C5.00008 6.70844 2.61317 7.90489 0.568253 12.4444C-0.0827216 13.8889 -1.75466 16 7 16C15.7547 16 14.0827 13.8889 13.4317 12.4444ZM11.8148 14.0009C11.1128 14.1876 9.71589 14.4 7 14.4C4.28411 14.4 2.88716 14.1876 2.18519 14.0009C1.9362 13.9351 1.8392 13.6782 1.9272 13.4427C2.14719 12.8471 2.56217 11.8178 3.33814 10.6684C5.23407 7.86045 7.20099 11.1102 8.83793 11.1102C10.4749 11.1102 10.0259 9.72267 10.6619 10.6684C11.2471 11.5435 11.7204 12.474 12.0728 13.4427C12.1608 13.6782 12.0638 13.9342 11.8148 14.0009Z" fill="white"/>
</svg>
