<svg width="8" height="8" viewBox="0 0 8 8" fill="none" xmlns="http://www.w3.org/2000/svg">
<path d="M7.70219 1.65858L6.33217 0.286107C6.15794 0.10928 5.92215 0.00686949 5.67421 0.000333191C5.42628 -0.00620311 5.18544 0.0836423 5.00216 0.251044L4.00215 1.25285L3.35714 0.631729C3.31052 0.585026 3.25517 0.547979 3.19426 0.522703C3.13335 0.497427 3.06807 0.484418 3.00214 0.484418C2.86898 0.484418 2.74128 0.537407 2.64713 0.631729C2.60051 0.678432 2.56353 0.733877 2.5383 0.794898C2.51307 0.855919 2.50008 0.921321 2.50008 0.987369C2.50008 1.12076 2.55298 1.24869 2.64713 1.34301L3.26714 1.98917L0.502107 4.75916C0.340488 4.92243 0.239856 5.13644 0.217104 5.36525L0.0021015 7.45401C-0.0046341 7.52737 0.0048687 7.60133 0.0299324 7.67059C0.0549961 7.73986 0.0950036 7.80273 0.147103 7.85473C0.193824 7.90115 0.249232 7.93788 0.310152 7.96281C0.371071 7.98774 0.436303 8.00037 0.502107 7.99999H0.547108L2.63213 7.80965C2.86053 7.78686 3.07415 7.68604 3.23714 7.52413L6.02717 4.7291L6.64718 5.35022C6.69366 5.39717 6.74896 5.43443 6.80989 5.45986C6.87082 5.48529 6.93617 5.49839 7.00218 5.49839C7.06819 5.49839 7.13354 5.48529 7.19447 5.45986C7.2554 5.43443 7.3107 5.39717 7.35718 5.35022C7.40405 5.30366 7.44125 5.24826 7.46663 5.18722C7.49202 5.12618 7.50508 5.06071 7.50508 4.99458C7.50508 4.92846 7.49202 4.86299 7.46663 4.80195C7.44125 4.74091 7.40405 4.68551 7.35718 4.63894L6.73718 4.01782L7.73719 3.01602C7.91185 2.83117 8.00624 2.5845 7.99968 2.33005C7.99312 2.07561 7.88614 1.83415 7.70219 1.65858ZM1.20211 5.46543L4.00215 2.6704L5.34716 4.02283L3.95215 5.42035" fill="black"/>
</svg>
