<svg width="16" height="20" viewBox="0 0 16 20" fill="none" xmlns="http://www.w3.org/2000/svg">
<path d="M11.5 15.4V17.2C11.5 17.6774 11.3156 18.1352 10.9874 18.4728C10.6592 18.8104 10.2141 19 9.75 19H2.75C2.28587 19 1.84075 18.8104 1.51256 18.4728C1.18437 18.1352 1 17.6774 1 17.2V7.3C1 6.82261 1.18437 6.36477 1.51256 6.02721C1.84075 5.68964 2.28587 5.5 2.75 5.5H4.5M4.5 2.8V13.6C4.5 14.0774 4.68437 14.5352 5.01256 14.8728C5.34075 15.2104 5.78587 15.4 6.25 15.4H13.25C13.7141 15.4 14.1592 15.2104 14.4874 14.8728C14.8156 14.5352 15 14.0774 15 13.6V5.7178C15 5.478 14.9534 5.24063 14.8629 5.01962C14.7724 4.79861 14.64 4.59842 14.4733 4.4308L11.5726 1.513C11.2457 1.18419 10.8066 1.00006 10.3494 1H6.25C5.78587 1 5.34075 1.18964 5.01256 1.52721C4.68437 1.86477 4.5 2.32261 4.5 2.8Z" stroke="white" stroke-linecap="round" stroke-linejoin="round"/>
</svg>
