<svg width="16" height="12" viewBox="0 0 16 12" fill="none" xmlns="http://www.w3.org/2000/svg">
<path d="M6.73686 0C2.52628 0 0 3.19998 0 4.80013C0 6.40027 0.841983 7.60031 2.52628 7.60031C4.21058 7.60031 5.0529 8.0001 5.0529 9.20014C5.0529 10.8 6.31587 12 8.00017 12C13.4741 12 16 9.20014 16 6.40027C15.9997 1.60015 11.7884 0 6.73686 0ZM5.68422 1.60015C5.82263 1.60031 5.95965 1.62631 6.08745 1.67664C6.21526 1.72698 6.33135 1.80067 6.4291 1.89351C6.52685 1.98635 6.60434 2.09652 6.65714 2.21774C6.70995 2.33895 6.73704 2.46883 6.73686 2.59996C6.73686 3.15261 6.26554 3.60009 5.68422 3.60009C5.10289 3.60009 4.63157 3.15229 4.63157 2.59996C4.6314 2.46883 4.65848 2.33895 4.71129 2.21774C4.76409 2.09652 4.84158 1.98635 4.93933 1.89351C5.03708 1.80067 5.15317 1.72698 5.28098 1.67664C5.40878 1.62631 5.5458 1.60031 5.68422 1.60015ZM9.05215 1.60015C9.19056 1.60031 9.32758 1.62631 9.45538 1.67664C9.58319 1.72698 9.69928 1.80067 9.79703 1.89351C9.89478 1.98635 9.97227 2.09652 10.0251 2.21774C10.0779 2.33895 10.105 2.46883 10.1048 2.59996C10.105 2.73112 10.078 2.86104 10.0252 2.98229C9.97238 3.10354 9.8949 3.21375 9.79715 3.30662C9.6994 3.3995 9.58329 3.47322 9.45546 3.52357C9.32763 3.57393 9.19058 3.59993 9.05215 3.60009C8.91373 3.59989 8.77672 3.57385 8.64893 3.52348C8.52114 3.47311 8.40507 3.39938 8.30736 3.30651C8.20964 3.21364 8.13219 3.10344 8.07942 2.98221C8.02666 2.86098 7.99961 2.73109 7.99983 2.59996C7.99948 2.33519 8.11014 2.08111 8.30748 1.89362C8.50481 1.70613 8.77267 1.60057 9.05215 1.60015ZM12.4207 3.19998C12.5592 3.2001 12.6963 3.22608 12.8242 3.27641C12.952 3.32675 13.0682 3.40046 13.166 3.49334C13.2637 3.58622 13.3413 3.69644 13.3941 3.81772C13.4469 3.93899 13.4739 4.06893 13.4737 4.20011C13.4739 4.33128 13.4469 4.46121 13.3941 4.58246C13.3412 4.70371 13.2637 4.81391 13.1659 4.90677C13.0681 4.99962 12.952 5.07331 12.8241 5.12361C12.6963 5.17391 12.5592 5.19984 12.4207 5.19993C12.2823 5.1998 12.1453 5.17384 12.0175 5.12351C11.8897 5.07319 11.7736 4.99949 11.6759 4.90664C11.5781 4.81378 11.5007 4.70359 11.4479 4.58236C11.3952 4.46113 11.3682 4.33124 11.3684 4.20011C11.3682 4.06897 11.3952 3.93906 11.4479 3.81781C11.5007 3.69656 11.5781 3.58635 11.6759 3.49347C11.7736 3.40059 11.8897 3.32687 12.0175 3.27651C12.1453 3.22615 12.2823 3.20014 12.4207 3.19998ZM2.73694 4.00021C2.87532 4.00033 3.01232 4.02629 3.14011 4.0766C3.26789 4.1269 3.38397 4.20057 3.48169 4.29339C3.57941 4.38621 3.65688 4.49636 3.70965 4.61756C3.76242 4.73875 3.78947 4.86861 3.78925 4.99971C3.78925 5.55236 3.31793 5.99984 2.73694 5.99984C2.15596 5.99984 1.6843 5.55204 1.6843 4.99971C1.68403 4.73493 1.79478 4.48089 1.99218 4.29346C2.18958 4.10603 2.45747 4.00055 2.73694 4.00021ZM7.99983 8.0001C8.69749 8.0001 9.26281 8.53696 9.26281 9.20045C9.26281 9.863 8.69749 10.4002 7.99983 10.4002C7.30218 10.4002 6.73686 9.863 6.73686 9.20045C6.73655 9.04306 6.76898 8.88715 6.8323 8.74163C6.89561 8.59611 6.98856 8.46384 7.10585 8.35237C7.22314 8.2409 7.36246 8.15242 7.51585 8.09197C7.66924 8.03153 7.8337 8.00031 7.99983 8.0001Z" fill="#F7F7F7"/>
</svg>
