<svg width="18" height="18" viewBox="0 0 18 18" fill="none" xmlns="http://www.w3.org/2000/svg">
<path d="M11.25 11.9999L8.25 14.9999H14.25C15.075 14.9999 15.75 14.3249 15.75 13.4999C15.75 12.6749 15.075 11.9999 14.25 11.9999H11.25ZM9.045 5.39238L2.4675 11.9699C2.3325 12.1049 2.25 12.2999 2.25 12.4949V14.2499C2.25 14.6624 2.5875 14.9999 3 14.9999H4.755C4.9575 14.9999 5.145 14.9174 5.2875 14.7824L11.865 8.20488L9.045 5.39238ZM14.0325 6.02988C14.102 5.96049 14.1572 5.87808 14.1948 5.78735C14.2325 5.69662 14.2518 5.59936 14.2518 5.50113C14.2518 5.4029 14.2325 5.30564 14.1948 5.21491C14.1572 5.12418 14.102 5.04177 14.0325 4.97238L12.2775 3.21738C12.2081 3.14785 12.1257 3.09269 12.035 3.05506C11.9442 3.01742 11.847 2.99805 11.7487 2.99805C11.6505 2.99805 11.5533 3.01742 11.4625 3.05506C11.3718 3.09269 11.2894 3.14785 11.22 3.21738L9.8475 4.58988L12.66 7.40238L14.0325 6.02988Z" fill="white"/>
</svg>
