<svg width="16" height="16" viewBox="0 0 16 16" fill="none" xmlns="http://www.w3.org/2000/svg">
<path d="M14.2714 8C14.2714 6.82944 13.9437 5.68225 13.3255 4.68827C12.7073 3.69429 11.8232 2.89322 10.7732 2.37571C9.72325 1.85821 8.5494 1.64494 7.38452 1.76005C6.21963 1.87516 5.11023 2.31404 4.18187 3.02703H4.75787C4.98725 3.02703 5.20723 3.11815 5.36942 3.28035C5.53161 3.44254 5.62273 3.66252 5.62273 3.8919C5.62273 4.12127 5.53161 4.34126 5.36942 4.50345C5.20723 4.66564 4.98725 4.75676 4.75787 4.75676H2.16328C1.9339 4.75676 1.71392 4.66564 1.55172 4.50345C1.38953 4.34126 1.29841 4.12127 1.29841 3.8919V3.67568H1.26901L1.29841 3.63071V1.29731C1.29841 1.06793 1.38953 0.847948 1.55172 0.685754C1.71392 0.523561 1.9339 0.432442 2.16328 0.432442C2.39265 0.432442 2.61263 0.523561 2.77483 0.685754C2.93702 0.847948 3.02814 1.06793 3.02814 1.29731V1.7332C4.44134 0.608347 6.19489 -0.00280213 8.00111 9.6592e-06C9.62506 0.000234565 11.2105 0.494676 12.5467 1.41762C13.8828 2.34056 14.9065 3.64829 15.4816 5.167C16.0567 6.68572 16.1559 8.34348 15.7662 9.91997C15.3764 11.4965 14.5162 12.917 13.2997 13.9928C12.0832 15.0686 10.5681 15.7487 8.95575 15.9427C7.34344 16.1367 5.71026 15.8354 4.27328 15.0789C2.8363 14.3224 1.66357 13.1465 0.910974 11.7075C0.158374 10.2685 -0.138459 8.63449 0.0599258 7.02271C0.114412 6.5799 0.506196 6.27027 0.952466 6.27027C1.46274 6.27027 1.83203 6.76238 1.77322 7.27006C1.6741 8.11831 1.7493 8.97788 1.99422 9.79604C2.23915 10.6142 2.64862 11.3737 3.19754 12.028C3.74645 12.6822 4.42324 13.2174 5.18638 13.6008C5.94953 13.9842 6.78295 14.2076 7.63552 14.2574C8.4881 14.3072 9.34186 14.1823 10.1444 13.8904C10.947 13.5985 11.6815 13.1457 12.3029 12.5597C12.9242 11.9738 13.4193 11.2672 13.7578 10.4831C14.0963 9.699 14.2711 8.85403 14.2714 8ZM8.86597 4.54055C8.86597 4.31117 8.77486 4.09119 8.61266 3.92899C8.45047 3.7668 8.23049 3.67568 8.00111 3.67568C7.77173 3.67568 7.55175 3.7668 7.38956 3.92899C7.22737 4.09119 7.13625 4.31117 7.13625 4.54055V8.86487C7.13625 9.09424 7.22737 9.31422 7.38956 9.47642C7.55175 9.63861 7.77173 9.72973 8.00111 9.72973H10.5957C10.8251 9.72973 11.0451 9.63861 11.2073 9.47642C11.3694 9.31422 11.4606 9.09424 11.4606 8.86487C11.4606 8.63549 11.3694 8.41551 11.2073 8.25331C11.0451 8.09112 10.8251 8 10.5957 8H8.86597V4.54055Z" fill="#F7F7F7"/>
</svg>
