<svg width="16" height="16" viewBox="0 0 16 16" fill="none" xmlns="http://www.w3.org/2000/svg">
<path d="M0.293 6.27816L7.293 0.252052C7.48053 0.0906631 7.73484 0 8 0C8.26516 0 8.51947 0.0906631 8.707 0.252052L15.707 6.27816C15.8946 6.43957 15.9999 6.6585 16 6.8868V15.1391C16 15.3674 15.8946 15.5864 15.7071 15.7479C15.5196 15.9093 15.2652 16 15 16H10V10H6V16H1C0.734784 16 0.48043 15.9093 0.292893 15.7479C0.105357 15.5864 0 15.3674 0 15.1391V6.8868C5.66374e-05 6.6585 0.105451 6.43957 0.293 6.27816Z" fill="#BABAC0"/>
</svg>
