<svg width="44" height="55" viewBox="0 0 44 55" fill="none" xmlns="http://www.w3.org/2000/svg">
<path d="M30 27.56V28.8823C30 31.3133 31.9707 33.284 34.4017 33.284V33.284C36.4953 33.284 38.2992 34.7587 38.7155 36.8105L41.5136 50.6023C41.765 51.8414 40.8178 53 39.5535 53H4.44651C3.18215 53 2.23505 51.8414 2.48644 50.6023L5.28454 36.8105C5.70082 34.7587 7.50472 33.284 9.59833 33.284V33.284C12.0293 33.284 14 31.3133 14 28.8823V27.56M30 27.56H14M30 27.56H34V21.2H10V27.56H14M15.2026 14.1333L6.70588 5.81961M22 11.6392V0M28.7974 14.1333L37.2941 5.81961M33.1227 40.8586L33.8369 45.8586C33.923 46.461 33.4555 47 32.847 47H11.153C10.5445 47 10.077 46.461 10.1631 45.8586L10.8773 40.8586C10.9477 40.3659 11.3696 40 11.8673 40H32.1327C32.6304 40 33.0523 40.3659 33.1227 40.8586Z" stroke="#F5F3C2" stroke-width="3"/>
</svg>
