<svg width="42" height="42" viewBox="0 0 42 42" fill="none" xmlns="http://www.w3.org/2000/svg">
<path d="M37.5144 13.5767C37.8099 12.5396 37.874 11.4503 37.7021 10.3857C37.5301 9.32119 37.1264 8.30743 36.5193 7.41615C35.9123 6.52487 35.1169 5.77785 34.1893 5.22794C33.2617 4.67802 32.2246 4.33863 31.1514 4.23378C30.7207 2.99818 29.9167 1.927 28.8504 1.16851C27.7842 0.410026 26.5085 0.00174567 25.2 0.000183105C23.6451 0.00544954 22.1479 0.58937 21 1.63818C19.8521 0.58937 18.3549 0.00544954 16.8 0.000183105C14.0679 0.000183105 11.739 1.74528 10.8675 4.23168C9.79237 4.33391 8.75291 4.67147 7.82285 5.22042C6.89279 5.76938 6.09493 6.51627 5.48587 7.40812C4.87681 8.29997 4.47146 9.31492 4.29859 10.381C4.12573 11.447 4.18957 12.5381 4.4856 13.5767C3.13747 14.2939 2.00865 15.3628 1.21891 16.6698C0.429173 17.9767 0.00797155 19.4731 0 21.0002C0 23.2577 0.8988 25.3808 2.4612 26.9474C2.22214 27.7431 2.10046 28.5694 2.1 29.4002C2.1 33.5099 5.0652 36.9392 9.0426 37.6616C9.6265 38.9521 10.5694 40.0473 11.7587 40.8166C12.948 41.5859 14.3336 41.9968 15.75 42.0002C17.8059 42.0002 19.6644 41.1455 21 39.7763C21.6817 40.4795 22.4976 41.0387 23.3995 41.4207C24.3013 41.8027 25.2706 41.9998 26.25 42.0002C27.6639 41.9976 29.0472 41.5883 30.235 40.8213C31.4228 40.0543 32.3649 38.9618 32.949 37.6742C34.1207 37.4676 35.2353 37.0149 36.2191 36.3458C37.2029 35.6768 38.0337 34.8066 38.6564 33.7929C39.2792 32.7791 39.6799 31.6448 39.832 30.4648C39.9841 29.2848 39.8842 28.0859 39.5388 26.9474C40.3196 26.1663 40.9388 25.2391 41.3611 24.2187C41.7834 23.1982 42.0005 22.1046 42 21.0002C41.992 19.4731 41.5708 17.9767 40.7811 16.6698C39.9913 15.3628 38.8625 14.2939 37.5144 13.5767ZM15.75 37.8002C14.2569 37.8002 12.957 36.7418 12.663 35.2844L12.2178 33.6002H10.5C8.1837 33.6002 6.3 31.7165 6.3 29.4002C6.3 28.661 6.4785 27.968 6.8313 27.3401L7.7889 25.6265L6.1425 24.5555C5.54775 24.172 5.05842 23.6459 4.71913 23.0249C4.37984 22.4039 4.20137 21.7078 4.2 21.0002C4.2 18.9485 5.7183 17.1698 7.7322 16.859L11.2875 16.313L9.0636 13.4864C8.66756 12.9758 8.43788 12.3559 8.40563 11.7106C8.37338 11.0652 8.54012 10.4255 8.88328 9.878C9.22645 9.33049 9.72949 8.90159 10.3244 8.6493C10.9192 8.39701 11.5773 8.33351 12.2094 8.46738L14.7 8.83488V6.30018C14.7 5.74323 14.9212 5.20909 15.3151 4.81526C15.7089 4.42143 16.243 4.20018 16.8 4.20018C17.357 4.20018 17.8911 4.42143 18.2849 4.81526C18.6787 5.20909 18.9 5.74323 18.9 6.30018V34.6502C18.9 36.3869 17.4867 37.8002 15.75 37.8002ZM35.8575 24.5534L34.2111 25.6244L35.1687 27.338C35.5215 27.968 35.7 28.661 35.7 29.4002C35.7 31.7165 33.8163 33.6002 31.395 33.6002H29.6772L29.337 35.2844C29.1902 35.9947 28.803 36.6328 28.2407 37.091C27.6784 37.5493 26.9754 37.7997 26.25 37.8002C24.5133 37.8002 23.1 36.3869 23.1 34.6502V6.30018C23.1 5.14098 24.0408 4.20018 25.2 4.20018C26.3592 4.20018 27.3 5.14098 27.3 6.40518V8.93988L29.7906 8.46738C30.4227 8.33351 31.0808 8.39701 31.6756 8.6493C32.2705 8.90159 32.7735 9.33049 33.1167 9.878C33.4599 10.4255 33.6266 11.0652 33.5944 11.7106C33.5621 12.3559 33.3324 12.9758 32.9364 13.4864L30.7125 16.3151L34.2678 16.8611C35.2516 17.0204 36.1469 17.524 36.7938 18.2821C37.4408 19.0402 37.7974 20.0035 37.8 21.0002C37.8 22.4345 37.0734 23.7617 35.8575 24.5534Z" fill="#F5F3C2"/>
</svg>
