<svg width="18" height="18" viewBox="0 0 18 18" fill="none" xmlns="http://www.w3.org/2000/svg">
<path d="M17.0958 0.875781C16.5082 0.313671 15.7269 0 14.9142 0C14.1016 0 13.3203 0.313671 12.7327 0.875781L1.58144 12.0457C1.07844 12.5467 0.679674 13.1426 0.408222 13.7989C0.136769 14.4553 -0.00197498 15.1591 2.12382e-05 15.8695V18H2.12607C2.83553 18.0021 3.53834 17.8632 4.19381 17.5913C4.84929 17.3195 5.44438 16.9201 5.94463 16.4164L17.0958 5.24572C17.3825 4.95885 17.6099 4.61822 17.765 4.24332C17.9201 3.86841 18 3.46657 18 3.06075C18 2.65493 17.9201 2.25309 17.765 1.87819C17.6099 1.50328 17.3825 1.16266 17.0958 0.875781ZM6.87343 8.93102L9.05579 11.1164L7.41883 12.7548L5.23723 10.5702L6.87343 8.93102ZM4.85306 15.3241C4.49578 15.6838 4.07079 15.969 3.6027 16.1631C3.13461 16.3572 2.63272 16.4564 2.12607 16.455H1.54287V15.8687C1.54149 15.3614 1.64059 14.8588 1.83444 14.3901C2.0283 13.9213 2.31306 13.4958 2.67224 13.138L4.14567 11.6625L6.32803 13.8471L4.85306 15.3241ZM16.0058 4.15266L10.1474 10.0233L7.965 7.83873L13.8242 1.96807C14.118 1.68702 14.5087 1.53018 14.915 1.53018C15.3213 1.53018 15.712 1.68702 16.0058 1.96807C16.2951 2.2578 16.4575 2.6507 16.4575 3.06037C16.4575 3.47004 16.2951 3.86293 16.0058 4.15266Z" fill="#F7F7F7"/>
</svg>
