<svg width="14" height="13" viewBox="0 0 14 13" fill="none" xmlns="http://www.w3.org/2000/svg">
<path d="M9 9.00185L6 12.0019H12C12.825 12.0019 13.5 11.3268 13.5 10.5019C13.5 9.67685 12.825 9.00185 12 9.00185H9ZM6.795 2.39433L0.2175 8.97185C0.0825 9.10685 0 9.30185 0 9.49685V11.2519C0 11.6644 0.3375 12.0019 0.75 12.0019H2.505C2.7075 12.0019 2.895 11.9194 3.0375 11.7844L9.615 5.20683L6.795 2.39433ZM11.7825 3.03183C11.852 2.96244 11.9072 2.88003 11.9448 2.7893C11.9825 2.69857 12.0018 2.60131 12.0018 2.50308C12.0018 2.40485 11.9825 2.30759 11.9448 2.21686C11.9072 2.12613 11.852 2.04372 11.7825 1.97433L10.0275 0.21933C9.9581 0.1498 9.8757 0.0946399 9.785 0.0570099C9.6942 0.0193699 9.597 0 9.4987 0C9.4005 0 9.3033 0.0193699 9.2125 0.0570099C9.1218 0.0946399 9.0394 0.1498 8.97 0.21933L7.5975 1.59183L10.41 4.40433L11.7825 3.03183Z" fill="white"/>
</svg>
