<svg width="16" height="16" viewBox="0 0 16 16" fill="none" xmlns="http://www.w3.org/2000/svg">
<path d="M5.02692 11.2125C5.22842 11.3544 5.46898 11.4303 5.71542 11.4297C5.96186 11.429 6.20204 11.352 6.40284 11.2091C6.60626 11.0605 6.76053 10.8547 6.8451 10.617L7.35593 9.0477C7.4867 8.65418 7.70731 8.29654 8.00029 8.00312C8.29327 7.7097 8.65056 7.48856 9.04383 7.35724L10.6335 6.8429C10.8685 6.7578 11.0709 6.60108 11.2121 6.39484C11.3534 6.1886 11.4264 5.94323 11.4208 5.6933C11.4153 5.44337 11.3315 5.20148 11.1812 5.00172C11.0309 4.80196 10.8217 4.65439 10.5832 4.57981L9.01183 4.06776C8.61813 3.9372 8.26027 3.71665 7.96668 3.4236C7.67308 3.13056 7.45184 2.77309 7.3205 2.37959L6.80396 0.793139C6.72078 0.559416 6.56684 0.357433 6.36355 0.215288C6.16025 0.0731435 5.91772 -0.0020932 5.66968 4.43152e-05C5.42164 0.00218183 5.18044 0.0815873 4.97962 0.227214C4.77881 0.372841 4.62837 0.577448 4.54923 0.81257L4.02697 2.41273C3.89617 2.79564 3.68006 3.1438 3.39497 3.43091C3.10989 3.71803 2.76329 3.93657 2.38135 4.07005L0.792873 4.58096C0.559281 4.66432 0.357437 4.81836 0.215361 5.02168C0.0732858 5.225 -0.00197096 5.46752 3.92466e-05 5.71557C0.00204945 5.96362 0.0812268 6.20489 0.226579 6.40588C0.371931 6.60687 0.576246 6.75762 0.811157 6.83719L2.38135 7.34581C2.77671 7.47731 3.13575 7.69966 3.42967 7.99502C3.72359 8.29038 3.94421 8.65052 4.07383 9.04656L4.59037 10.6364C4.67265 10.8696 4.82579 11.0708 5.02692 11.2125ZM12.0402 15.8324C12.1571 15.9146 12.2915 15.9685 12.4328 15.9897C12.5742 16.011 12.7185 15.9991 12.8544 15.955C12.9903 15.9109 13.1141 15.8357 13.2159 15.7355C13.3178 15.6352 13.395 15.5127 13.4413 15.3775L13.7247 14.5065C13.7857 14.3259 13.8874 14.1617 14.0218 14.0265C14.1567 13.8893 14.3212 13.7888 14.5018 13.7293L15.384 13.4413C15.5661 13.3784 15.7237 13.2597 15.8342 13.102C15.9448 12.9443 16.0028 12.7557 15.9999 12.5631C15.997 12.3705 15.9333 12.1838 15.818 12.0295C15.7027 11.8752 15.5416 11.7613 15.3578 11.704L14.4847 11.4182C14.3039 11.3581 14.1397 11.2569 14.0048 11.1224C13.8699 10.9879 13.7682 10.8239 13.7076 10.6433L13.4196 9.75977C13.3577 9.57805 13.2403 9.42041 13.0839 9.30918C12.9275 9.19795 12.74 9.13877 12.5481 9.14003C12.3562 9.1413 12.1695 9.20294 12.0146 9.31622C11.8596 9.42951 11.7443 9.58869 11.6848 9.7712L11.4026 10.6421C11.3444 10.8214 11.2455 10.9847 11.1136 11.1194C10.9818 11.254 10.8206 11.3563 10.6426 11.4182L9.75922 11.7063C9.57745 11.7679 9.41968 11.8851 9.30827 12.0414C9.19685 12.1977 9.13744 12.3851 9.13845 12.5771C9.13946 12.769 9.20085 12.9558 9.3139 13.1109C9.42696 13.266 9.58596 13.3816 9.76836 13.4413L10.6403 13.7236C10.8232 13.7853 10.9877 13.8871 11.1226 14.0219C11.2586 14.1579 11.3591 14.3225 11.4174 14.5043L11.7065 15.3889C11.7691 15.5678 11.8857 15.7227 12.0402 15.8324Z" fill="#F5F3C2"/>
</svg>
