<svg width="14" height="14" viewBox="0 0 14 14" fill="none" xmlns="http://www.w3.org/2000/svg">
<path d="M12.4444 0H1.55556C1.143 0 0.747335 0.163888 0.455612 0.455612C0.163888 0.747335 0 1.143 0 1.55556V12.4444C0 12.857 0.163888 13.2527 0.455612 13.5444C0.747335 13.8361 1.143 14 1.55556 14H12.4444C12.857 14 13.2527 13.8361 13.5444 13.5444C13.8361 13.2527 14 12.857 14 12.4444V1.55556C14 1.143 13.8361 0.747335 13.5444 0.455612C13.2527 0.163888 12.857 0 12.4444 0ZM12.4444 12.4444H1.55556V1.55556H12.4444V12.4444ZM4.66667 10.8889H3.11111V7H4.66667V10.8889ZM7.77778 10.8889H6.22222V3.11111H7.77778V10.8889ZM10.8889 10.8889H9.33333V5.44444H10.8889V10.8889Z" fill="white"/>
</svg>
