<svg width="24" height="10" viewBox="0 0 24 10" fill="none" xmlns="http://www.w3.org/2000/svg">
<path d="M12.5575 0C9.38824 0 6.51795 1.2375 4.30544 3.25L2.04508 0.8875C1.29163 0.1 0 0.65 0 1.7625V8.75C0 9.4375 0.538179 10 1.19595 10H7.88134C8.94574 10 9.48392 8.65 8.73047 7.8625L6.44619 5.475C8.10857 4.025 10.2254 3.125 12.5695 3.125C16.3487 3.125 19.6136 5.425 21.1684 8.75C21.4913 9.45 22.2567 9.8 22.9623 9.55C23.8114 9.2625 24.242 8.25 23.8593 7.4C21.8022 3.025 17.5207 0 12.5575 0Z" fill="#F7F7F7"/>
</svg>
